ISO-10303-21;
HEADER;
FILE_DESCRIPTION(('ViewDefinition [ReferenceView]'),'2;1');
FILE_NAME('DATA02-SYN.ifc','2026-09-25T00:00:00',('DATA-02'),('DATA-02'),'DATA-02','DATA-02','');
FILE_SCHEMA(('IFC4'));
ENDSEC;
DATA;
#1=IFCPERSON($,$,'DATA-02',$,$,$,$,$);
#2=IFCORGANIZATION($,'DATA-02',$,$,$);
#3=IFCPERSONANDORGANIZATION(#1,#2,$);
#4=IFCAPPLICATION(#2,'1','Authored fixture','DATA02');
#5=IFCOWNERHISTORY(#3,#4,$,.ADDED.,$,$,$,0);
#6=IFCSIUNIT(*,.LENGTHUNIT.,$,.METRE.);
#7=IFCUNITASSIGNMENT((#6));
#8=IFCCARTESIANPOINT((0.,0.,0.));
#9=IFCAXIS2PLACEMENT3D(#8,$,$);
#10=IFCGEOMETRICREPRESENTATIONCONTEXT($,'Model',3,1.E-5,#9,$);
#11=IFCPROJECT('0000000000000000000001',#5,'SYNTHETIC LOCAL',$,$,$,$,(#10),#7);
#12=IFCLOCALPLACEMENT($,#9);
#13=IFCSITE('0000000000000000000002',#5,'SITE-SYN',$,$,#12,$,$,.ELEMENT.,$,$,$,$,$);
#14=IFCBUILDING('0000000000000000000003',#5,'BUILDING-SYN',$,$,#12,$,$,.ELEMENT.,$,$,$);
#15=IFCBUILDINGSTOREY('0000000000000000000004',#5,'STILT',$,$,#12,#25,$,.ELEMENT.,$);
#16=IFCRELAGGREGATES('0000000000000000000005',#5,$,$,#11,(#13));
#17=IFCRELAGGREGATES('0000000000000000000006',#5,$,$,#13,(#14));
#18=IFCRELAGGREGATES('0000000000000000000007',#5,$,$,#14,(#15));
#19=IFCDIRECTION((0.,0.,1.));
#20=IFCCARTESIANPOINT((0.,0.));
#21=IFCAXIS2PLACEMENT2D(#20,$);
#22=IFCRECTANGLEPROFILEDEF(.AREA.,'SYN-RECT',#21,10.,8.);
#23=IFCEXTRUDEDAREASOLID(#22,#9,#19,3.);
#24=IFCSHAPEREPRESENTATION(#10,'Body','SweptSolid',(#23));
#25=IFCPRODUCTDEFINITIONSHAPE($,$,(#24));
ENDSEC;
END-ISO-10303-21;
